<mxfile host="app.diagrams.net" modified="2023-11-10T09:10:40.121Z" agent="Mozilla/5.0 (Windows NT 10.0; Win64; x64) AppleWebKit/537.36 (KHTML, like Gecko) Chrome/119.0.0.0 Safari/537.36" etag="MA8xYl-sxB1l8AzAvcDj" version="22.1.0" type="github">
  <diagram name="Page-1" id="2YBvvXClWsGukQMizWep">
    <mxGraphModel dx="4285" dy="2260" grid="1" gridSize="10" guides="1" tooltips="1" connect="1" arrows="1" fold="1" page="1" pageScale="1" pageWidth="850" pageHeight="1100" math="0" shadow="0">
      <root>
        <mxCell id="0" />
        <mxCell id="1" parent="0" />
        <mxCell id="-v91JJjRzK7w9HNX38CT-7" style="edgeStyle=orthogonalEdgeStyle;rounded=0;orthogonalLoop=1;jettySize=auto;html=1;exitX=1;exitY=0.5;exitDx=0;exitDy=0;entryX=0;entryY=0.5;entryDx=0;entryDy=0;" edge="1" parent="1" source="-v91JJjRzK7w9HNX38CT-1" target="-v91JJjRzK7w9HNX38CT-4">
          <mxGeometry relative="1" as="geometry" />
        </mxCell>
        <mxCell id="-v91JJjRzK7w9HNX38CT-9" style="edgeStyle=orthogonalEdgeStyle;rounded=0;orthogonalLoop=1;jettySize=auto;html=1;exitX=0.5;exitY=1;exitDx=0;exitDy=0;entryX=0;entryY=0.5;entryDx=0;entryDy=0;" edge="1" parent="1" source="-v91JJjRzK7w9HNX38CT-1" target="-v91JJjRzK7w9HNX38CT-8">
          <mxGeometry relative="1" as="geometry" />
        </mxCell>
        <mxCell id="-v91JJjRzK7w9HNX38CT-1" value="Devcontainer" style="html=1;whiteSpace=wrap;" vertex="1" parent="1">
          <mxGeometry x="-500" y="320" width="110" height="50" as="geometry" />
        </mxCell>
        <mxCell id="-v91JJjRzK7w9HNX38CT-43" style="edgeStyle=orthogonalEdgeStyle;rounded=0;orthogonalLoop=1;jettySize=auto;html=1;exitX=1;exitY=0.5;exitDx=0;exitDy=0;entryX=0;entryY=0.5;entryDx=0;entryDy=0;" edge="1" parent="1" source="-v91JJjRzK7w9HNX38CT-4" target="-v91JJjRzK7w9HNX38CT-12">
          <mxGeometry relative="1" as="geometry" />
        </mxCell>
        <mxCell id="-v91JJjRzK7w9HNX38CT-44" style="edgeStyle=orthogonalEdgeStyle;rounded=0;orthogonalLoop=1;jettySize=auto;html=1;exitX=0.5;exitY=1;exitDx=0;exitDy=0;entryX=0;entryY=0.5;entryDx=0;entryDy=0;" edge="1" parent="1" source="-v91JJjRzK7w9HNX38CT-4" target="-v91JJjRzK7w9HNX38CT-10">
          <mxGeometry relative="1" as="geometry" />
        </mxCell>
        <mxCell id="-v91JJjRzK7w9HNX38CT-45" style="edgeStyle=orthogonalEdgeStyle;rounded=0;orthogonalLoop=1;jettySize=auto;html=1;exitX=0.5;exitY=0;exitDx=0;exitDy=0;entryX=0;entryY=0.5;entryDx=0;entryDy=0;" edge="1" parent="1" source="-v91JJjRzK7w9HNX38CT-4" target="-v91JJjRzK7w9HNX38CT-11">
          <mxGeometry relative="1" as="geometry" />
        </mxCell>
        <mxCell id="-v91JJjRzK7w9HNX38CT-4" value="Terraform" style="html=1;whiteSpace=wrap;" vertex="1" parent="1">
          <mxGeometry x="-300" y="320" width="110" height="50" as="geometry" />
        </mxCell>
        <mxCell id="-v91JJjRzK7w9HNX38CT-48" style="edgeStyle=orthogonalEdgeStyle;rounded=0;orthogonalLoop=1;jettySize=auto;html=1;exitX=1;exitY=0.5;exitDx=0;exitDy=0;entryX=0;entryY=0.5;entryDx=0;entryDy=0;" edge="1" parent="1" source="-v91JJjRzK7w9HNX38CT-8" target="-v91JJjRzK7w9HNX38CT-41">
          <mxGeometry relative="1" as="geometry" />
        </mxCell>
        <mxCell id="-v91JJjRzK7w9HNX38CT-8" value="DBT" style="html=1;whiteSpace=wrap;" vertex="1" parent="1">
          <mxGeometry x="-290" y="600" width="110" height="50" as="geometry" />
        </mxCell>
        <mxCell id="-v91JJjRzK7w9HNX38CT-47" style="edgeStyle=orthogonalEdgeStyle;rounded=0;orthogonalLoop=1;jettySize=auto;html=1;exitX=1;exitY=0.5;exitDx=0;exitDy=0;entryX=0.5;entryY=1;entryDx=0;entryDy=0;" edge="1" parent="1" source="-v91JJjRzK7w9HNX38CT-10" target="-v91JJjRzK7w9HNX38CT-12">
          <mxGeometry relative="1" as="geometry" />
        </mxCell>
        <mxCell id="-v91JJjRzK7w9HNX38CT-10" value="Airbyte" style="html=1;whiteSpace=wrap;" vertex="1" parent="1">
          <mxGeometry x="-120" y="430" width="110" height="50" as="geometry" />
        </mxCell>
        <mxCell id="-v91JJjRzK7w9HNX38CT-11" value="Object Storage" style="html=1;whiteSpace=wrap;" vertex="1" parent="1">
          <mxGeometry x="-120" y="180" width="110" height="50" as="geometry" />
        </mxCell>
        <mxCell id="-v91JJjRzK7w9HNX38CT-52" style="edgeStyle=orthogonalEdgeStyle;rounded=0;orthogonalLoop=1;jettySize=auto;html=1;exitX=1;exitY=0.5;exitDx=0;exitDy=0;entryX=0;entryY=0.5;entryDx=0;entryDy=0;" edge="1" parent="1" source="-v91JJjRzK7w9HNX38CT-12" target="-v91JJjRzK7w9HNX38CT-51">
          <mxGeometry relative="1" as="geometry" />
        </mxCell>
        <mxCell id="-v91JJjRzK7w9HNX38CT-12" value="ClickHouse" style="html=1;whiteSpace=wrap;" vertex="1" parent="1">
          <mxGeometry x="120" y="320" width="110" height="50" as="geometry" />
        </mxCell>
        <mxCell id="-v91JJjRzK7w9HNX38CT-35" value="" style="edgeStyle=orthogonalEdgeStyle;rounded=0;orthogonalLoop=1;jettySize=auto;html=1;" edge="1" parent="1" source="-v91JJjRzK7w9HNX38CT-13" target="-v91JJjRzK7w9HNX38CT-33">
          <mxGeometry relative="1" as="geometry" />
        </mxCell>
        <mxCell id="-v91JJjRzK7w9HNX38CT-13" value="Google Colab" style="html=1;whiteSpace=wrap;" vertex="1" parent="1">
          <mxGeometry x="-1080" y="40" width="110" height="50" as="geometry" />
        </mxCell>
        <mxCell id="-v91JJjRzK7w9HNX38CT-23" value="Forecast" style="ellipse;whiteSpace=wrap;html=1;fontStyle=1;fontSize=17;" vertex="1" parent="1">
          <mxGeometry x="-915" y="-230" width="140" height="70" as="geometry" />
        </mxCell>
        <mxCell id="-v91JJjRzK7w9HNX38CT-26" value="Infrastructure" style="ellipse;whiteSpace=wrap;html=1;fontSize=17;fontStyle=1" vertex="1" parent="1">
          <mxGeometry x="-160" y="-230" width="140" height="70" as="geometry" />
        </mxCell>
        <mxCell id="-v91JJjRzK7w9HNX38CT-27" value="BI" style="ellipse;whiteSpace=wrap;html=1;fontSize=17;fontStyle=1" vertex="1" parent="1">
          <mxGeometry x="420" y="-230" width="140" height="70" as="geometry" />
        </mxCell>
        <mxCell id="-v91JJjRzK7w9HNX38CT-36" style="edgeStyle=orthogonalEdgeStyle;rounded=0;orthogonalLoop=1;jettySize=auto;html=1;exitX=1;exitY=0.5;exitDx=0;exitDy=0;entryX=0;entryY=0.5;entryDx=0;entryDy=0;" edge="1" parent="1" source="-v91JJjRzK7w9HNX38CT-33" target="-v91JJjRzK7w9HNX38CT-34">
          <mxGeometry relative="1" as="geometry" />
        </mxCell>
        <mxCell id="-v91JJjRzK7w9HNX38CT-33" value="Forecast" style="html=1;whiteSpace=wrap;" vertex="1" parent="1">
          <mxGeometry x="-890" y="40" width="110" height="50" as="geometry" />
        </mxCell>
        <mxCell id="-v91JJjRzK7w9HNX38CT-37" style="edgeStyle=orthogonalEdgeStyle;rounded=0;orthogonalLoop=1;jettySize=auto;html=1;exitX=0.5;exitY=1;exitDx=0;exitDy=0;entryX=0.5;entryY=0;entryDx=0;entryDy=0;" edge="1" parent="1" source="-v91JJjRzK7w9HNX38CT-34" target="-v91JJjRzK7w9HNX38CT-11">
          <mxGeometry relative="1" as="geometry" />
        </mxCell>
        <mxCell id="-v91JJjRzK7w9HNX38CT-55" style="edgeStyle=orthogonalEdgeStyle;rounded=0;orthogonalLoop=1;jettySize=auto;html=1;exitX=0.5;exitY=0;exitDx=0;exitDy=0;entryX=0.5;entryY=0;entryDx=0;entryDy=0;" edge="1" parent="1" source="-v91JJjRzK7w9HNX38CT-34" target="-v91JJjRzK7w9HNX38CT-50">
          <mxGeometry relative="1" as="geometry" />
        </mxCell>
        <mxCell id="-v91JJjRzK7w9HNX38CT-34" value="CSV" style="html=1;whiteSpace=wrap;" vertex="1" parent="1">
          <mxGeometry x="-720" y="40" width="110" height="50" as="geometry" />
        </mxCell>
        <mxCell id="-v91JJjRzK7w9HNX38CT-40" value="" style="edgeStyle=orthogonalEdgeStyle;rounded=0;orthogonalLoop=1;jettySize=auto;html=1;" edge="1" parent="1" source="-v91JJjRzK7w9HNX38CT-39" target="-v91JJjRzK7w9HNX38CT-1">
          <mxGeometry relative="1" as="geometry" />
        </mxCell>
        <mxCell id="-v91JJjRzK7w9HNX38CT-39" value="VSCode" style="html=1;whiteSpace=wrap;" vertex="1" parent="1">
          <mxGeometry x="-500" y="170" width="110" height="50" as="geometry" />
        </mxCell>
        <mxCell id="-v91JJjRzK7w9HNX38CT-49" style="edgeStyle=orthogonalEdgeStyle;rounded=0;orthogonalLoop=1;jettySize=auto;html=1;exitX=1;exitY=0.5;exitDx=0;exitDy=0;entryX=0.75;entryY=1;entryDx=0;entryDy=0;" edge="1" parent="1" source="-v91JJjRzK7w9HNX38CT-41" target="-v91JJjRzK7w9HNX38CT-12">
          <mxGeometry relative="1" as="geometry" />
        </mxCell>
        <mxCell id="-v91JJjRzK7w9HNX38CT-41" value="Marts" style="html=1;whiteSpace=wrap;" vertex="1" parent="1">
          <mxGeometry x="-120" y="600" width="110" height="50" as="geometry" />
        </mxCell>
        <mxCell id="-v91JJjRzK7w9HNX38CT-50" value="Power BI" style="html=1;whiteSpace=wrap;" vertex="1" parent="1">
          <mxGeometry x="435" y="140" width="110" height="50" as="geometry" />
        </mxCell>
        <mxCell id="-v91JJjRzK7w9HNX38CT-51" value="Yandex DataLens" style="html=1;whiteSpace=wrap;" vertex="1" parent="1">
          <mxGeometry x="435" y="320" width="110" height="50" as="geometry" />
        </mxCell>
        <mxCell id="-v91JJjRzK7w9HNX38CT-53" value="Base/ Forecast Data" style="endArrow=open;endSize=12;dashed=1;html=1;rounded=0;exitX=0.5;exitY=1;exitDx=0;exitDy=0;entryX=0.5;entryY=0;entryDx=0;entryDy=0;" edge="1" parent="1" source="-v91JJjRzK7w9HNX38CT-11" target="-v91JJjRzK7w9HNX38CT-10">
          <mxGeometry x="0.8" y="-75" width="160" relative="1" as="geometry">
            <mxPoint x="-37.5" y="310" as="sourcePoint" />
            <mxPoint x="-197.5" y="310" as="targetPoint" />
            <mxPoint as="offset" />
          </mxGeometry>
        </mxCell>
        <mxCell id="-v91JJjRzK7w9HNX38CT-59" value="&lt;span style=&quot;color: rgb(0, 0, 0); font-family: Helvetica; font-size: 11px; font-style: normal; font-variant-ligatures: normal; font-variant-caps: normal; font-weight: 400; letter-spacing: normal; orphans: 2; text-align: center; text-indent: 0px; text-transform: none; widows: 2; word-spacing: 0px; -webkit-text-stroke-width: 0px; background-color: rgb(255, 255, 255); text-decoration-thickness: initial; text-decoration-style: initial; text-decoration-color: initial; float: none; display: inline !important;&quot;&gt;Base/ Forecast Data&lt;/span&gt;" style="text;whiteSpace=wrap;html=1;" vertex="1" parent="1">
          <mxGeometry x="320" y="-20" width="130" height="40" as="geometry" />
        </mxCell>
        <mxCell id="-v91JJjRzK7w9HNX38CT-60" value="&lt;div style=&quot;text-align: center;&quot;&gt;&lt;span style=&quot;font-size: 11px; background-color: rgb(255, 255, 255);&quot;&gt;Datamarts&lt;/span&gt;&lt;/div&gt;" style="text;whiteSpace=wrap;html=1;" vertex="1" parent="1">
          <mxGeometry x="320" y="310" width="65" height="40" as="geometry" />
        </mxCell>
        <mxCell id="-v91JJjRzK7w9HNX38CT-69" value="" style="endArrow=none;dashed=1;html=1;dashPattern=1 3;strokeWidth=2;rounded=0;" edge="1" parent="1">
          <mxGeometry width="50" height="50" relative="1" as="geometry">
            <mxPoint x="-560" y="710" as="sourcePoint" />
            <mxPoint x="-560" y="-360" as="targetPoint" />
          </mxGeometry>
        </mxCell>
        <mxCell id="-v91JJjRzK7w9HNX38CT-70" value="" style="endArrow=none;dashed=1;html=1;dashPattern=1 3;strokeWidth=2;rounded=0;" edge="1" parent="1">
          <mxGeometry width="50" height="50" relative="1" as="geometry">
            <mxPoint x="280" y="710" as="sourcePoint" />
            <mxPoint x="280" y="-360" as="targetPoint" />
          </mxGeometry>
        </mxCell>
        <mxCell id="-v91JJjRzK7w9HNX38CT-71" value="&lt;font style=&quot;font-size: 36px;&quot;&gt;Dataflow&lt;/font&gt;" style="text;strokeColor=none;fillColor=none;html=1;fontSize=24;fontStyle=1;verticalAlign=middle;align=center;" vertex="1" parent="1">
          <mxGeometry x="-300" y="-360" width="220" height="40" as="geometry" />
        </mxCell>
      </root>
    </mxGraphModel>
  </diagram>
</mxfile>
